#!OML:ASF H:\Martial Arts Walks\Project 1\Capture day 1\Session 1\male.ASF
:FULLY-SPECIFIED
:DEGREES
1814
root -4.24487 14.1681 -40.9997 18.4542 -53.6284 -20.3438
lowerback 15.3708 5.7515 2.52674
upperback -3.23184 8.45402 2.0975
thorax -12.1466 3.88029 -1.25838
lowerneck -2.37019 9.20156 1.40371
upperneck 6.36595 12.0592 2.71201
head 2.32155 6.10423 0.944736
rclavicle -1.45113e-013 -3.73715e-014
rhumerus -53.2782 52.9678 -111.093
rradius 113.243
rwrist -80.3616
rhand 10.8334 -29.887
rfingers 7.12502
rthumb 35.9164 -56.224
lclavicle -1.45113e-013 -3.73715e-014
lhumerus 2.65139 10.0665 84.5554
lradius 90.1311
lwrist -29.6194
lhand -36.7659 53.4445
lfingers 7.12502
lthumb -9.84882 -276.806
rfemur -19.1385 -30.2665 11.3928
rtibia 70.0725
rfoot -27.3883 -19.9127
rtoes -22.7753
lfemur -61.5085 41.1522 -7.24177
ltibia 77.6472
lfoot -8.81441 7.52559
ltoes -3.32559
1815
root -4.24779 14.1678 -41.0263 18.3232 -53.8448 -20.1894
lowerback 15.3574 5.77416 2.47602
upperback -3.24905 8.47057 2.05862
thorax -12.159 3.88976 -1.27663
lowerneck -2.32688 9.21324 1.38205
upperneck 6.45353 12.0724 2.75184
head 2.33876 6.11167 0.961483
rclavicle 7.95139e-016 -1.27222e-014
rhumerus -53.1811 53.0529 -111.092
rradius 113.194
rwrist -80.453
rhand 10.9016 -29.9033
rfingers 7.12502
rthumb 35.981 -56.2245
lclavicle 7.95139e-016 -1.27222e-014
lhumerus 2.63602 10.1758 84.4655
lradius 90.0739
lwrist -29.451
lhand -36.736 53.4572
lfingers 7.12502
lthumb -9.81998 -276.792
rfemur -19.3171 -30.173 11.3603
rtibia 70.2616
rfoot -27.48 -19.9245
rtoes -22.5173
lfemur -61.4194 41.2669 -7.28728
ltibia 77.5161
lfoot -8.65989 7.59851
ltoes -3.1075
1816
root -4.25031 14.1676 -41.0531 18.229 -54.0379 -20.0763
lowerback 15.3554 5.78708 2.44777
upperback -3.26812 8.48036 2.0316
thorax -12.179 3.89454 -1.29394
lowerneck -2.2765 9.23231 1.35996
upperneck 6.5084 12.0978 2.76759
head 2.34527 6.1243 0.969541
rclavicle 1.80894e-014 -2.3059e-014
rhumerus -53.0821 53.1254 -111.09
rradius 113.154
rwrist -80.5002
rhand 11.0252 -29.8618
rfingers 7.12502
rthumb 36.098 -56.1541
lclavicle 1.80894e-014 -2.3059e-014
lhumerus 2.6075 10.3072 84.373
lradius 90.0566
lwrist -29.1883
lhand -36.7056 53.4125
lfingers 7.12502
lthumb -9.79064 -276.835
rfemur -19.4893 -30.0908 11.3629
rtibia 70.4342
rfoot -27.5704 -19.9343
rtoes -22.2931
lfemur -61.3308 41.3522 -7.2871
ltibia 77.3889
lfoot -8.50926 7.65697
ltoes -2.95188
1817
root -4.25253 14.1674 -41.08 18.1594 -54.2134 -19.9937
lowerback 15.3628 5.79219 2.43201
upperback -3.28519 8.48363 2.01572
thorax -12.2025 3.89561 -1.30529
lowerneck -2.21795 9.25873 1.33782
upperneck 6.52931 12.1353 2.76116
head 2.34036 6.14208 0.96929
rclavicle -1.86808e-013 8.74653e-015
rhumerus -52.9918 53.1879 -111.095
rradius 113.129
rwrist -80.5065
rhand 11.1717 -29.7732
rfingers 7.12502
rthumb 36.2368 -56.0311
lclavicle -1.86808e-013 8.74653e-015
lhumerus 2.56634 10.4655 84.2765
lradius 90.0801
lwrist -28.8995
lhand -36.6791 53.3172
lfingers 7.12502
lthumb -9.76502 -276.929
rfemur -19.652 -30.0245 11.3868
rtibia 70.5942
rfoot -27.6635 -19.9359
rtoes -22.1089
lfemur -61.2364 41.4176 -7.25109
ltibia 77.2611
lfoot -8.3638 7.70095
ltoes -2.85855
1818
root -4.25464 14.1671 -41.107 18.1044 -54.3754 -19.9311
lowerback 15.3749 5.79263 2.42144
upperback -3.29774 8.48257 2.00859
thorax -12.2244 3.89467 -1.30915
lowerneck -2.15306 9.28998 1.31807
upperneck 6.5205 12.1809 2.73704
head 2.32569 6.1633 0.961892
rclavicle 1.01082e-013 2.78299e-014
rhumerus -52.9183 53.2379 -111.111
rradius 113.123
rwrist -80.4776
rhand 11.309 -29.6466
rfingers 7.12502
rthumb 36.3668 -55.8722
lclavicle 1.01082e-013 2.78299e-014
lhumerus 2.51553 10.6478 84.1772
lradius 90.1382
lwrist -28.6538
lhand -36.6586 53.1908
lfingers 7.12502
lthumb -9.74523 -277.055
rfemur -19.8037 -29.978 11.42
rtibia 70.7443
rfoot -27.7627 -19.9231
rtoes -21.9663
lfemur -61.1372 41.4734 -7.19283
ltibia 77.1313
lfoot -8.22434 7.73071
ltoes -2.80328
1819
root -4.25687 14.1667 -41.1341 18.0569 -54.5265 -19.8792
lowerback 15.385 5.79157 2.41097
upperback -3.30453 8.47976 2.00735
thorax -12.2396 3.89342 -1.3057
lowerneck -2.08677 9.32293 1.30267
upperneck 6.49158 12.2296 2.70283
head 2.30504 6.18578 0.949921
rclavicle 6.75371e-014 -2.38542e-015
rhumerus -52.8665 53.2719 -111.137
rradius 113.138
rwrist -80.4217
rhand 11.4167 -29.497
rfingers 7.12502
rthumb 36.4687 -55.697
lclavicle 6.75371e-014 -2.38542e-015
lhumerus 2.46028 10.8472 84.0765
lradius 90.2188
lwrist -28.5028
lhand -36.6462 53.057
lfingers 7.12502
lthumb -9.73326 -277.188
rfemur -19.9441 -29.9547 11.4536
rtibia 70.887
rfoot -27.8711 -19.8906
rtoes -21.8605
lfemur -61.0376 41.5285 -7.12484
ltibia 77.0003
lfoot -8.09236 7.74544
ltoes -2.76601
1820
root -4.25942 14.166 -41.1611 18.0136 -54.6673 -19.832
lowerback 15.3871 5.79151 2.3985
upperback -3.3057 8.47755 2.00904
thorax -12.2444 3.89317 -1.2969
lowerneck -2.02455 9.35428 1.2943
upperneck 6.45337 12.276 2.66581
head 2.28275 6.20721 0.935831
rclavicle 4.01048e-014 3.97569e-015
rhumerus -52.8374 53.2875 -111.174
rradius 113.173
rwrist -80.3493
rhand 11.4906 -29.3458
rfingers 7.12502
rthumb 36.5387 -55.5282
lclavicle 4.01048e-014 3.97569e-015
lhumerus 2.40525 11.0548 83.9773
lradius 90.3089
lwrist -28.471
lhand -36.6462 52.9363
lfingers 7.12502
lthumb -9.7333 -277.309
rfemur -20.075 -29.9572 11.483
rtibia 71.0243
rfoot -27.9907 -19.8348
rtoes -21.7807
lfemur -60.9422 41.5882 -7.0554
ltibia 76.8698
lfoot -7.9704 7.74271
ltoes -2.734
1821
root -4.26243 14.165 -41.188 17.9723 -54.7974 -19.7847
lowerback 15.3776 5.79426 2.38342
upperback -3.30227 8.47788 2.01104
thorax -12.2374 3.89484 -1.28539
lowerneck -1.97137 9.38096 1.29434
upperneck 6.41594 12.3153 2.63325
head 2.26268 6.22548 0.922217
rclavicle -3.19049e-014 1.11319e-014
rhumerus -52.8282 53.2838 -111.215
rradius 113.222
rwrist -80.2735
rhand 11.5373 -29.2064
rfingers 7.12502
rthumb 36.5829 -55.3776
lclavicle -3.19049e-014 1.11319e-014
lhumerus 2.35451 11.2606 83.8838
lradius 90.3971
lwrist -28.5504
lhand -36.6608 52.8465
lfingers 7.12502
lthumb -9.74737 -277.399
rfemur -20.1989 -29.986 11.5059
rtibia 71.1588
rfoot -28.1214 -19.7557
rtoes -21.7141
lfemur -60.8545 41.6553 -6.98914
ltibia 76.7421
lfoot -7.86121 7.71812
ltoes -2.70556
1822
root -4.26597 14.1635 -41.2147 17.9336 -54.917 -19.7368
lowerback 15.3559 5.8005 2.36595
upperback -3.2958 8.48165 2.0122
thorax -12.2198 3.89874 -1.27281
lowerneck -1.9291 9.40163 1.3026
upperneck 6.38517 12.3453 2.61
head 2.2468 6.23963 0.910878
rclavicle 1.56493e-013 1.11319e-014
rhumerus -52.8342 53.2649 -111.256
rradius 113.278
rwrist -80.2076
rhand 11.5728 -29.0899
rfingers 7.12502
rthumb 36.6165 -55.2526
lclavicle 1.56493e-013 1.11319e-014
lhumerus 2.31081 11.4571 83.7991
lradius 90.4753
lwrist -28.7055
lhand -36.6885 52.7962
lfingers 7.12502
lthumb -9.77411 -277.451
rfemur -20.3194 -30.0393 11.5241
rtibia 71.2936
rfoot -28.2613 -19.6573
rtoes -21.6526
lfemur -60.7767 41.7315 -6.92637
ltibia 76.6194
lfoot -7.76584 7.66704
ltoes -2.68639
1823
root -4.27002 14.1614 -41.2412 17.8982 -55.0262 -19.6889
lowerback 15.3241 5.80967 2.34694
upperback -3.28784 8.48846 2.01235
thorax -12.1946 3.90449 -1.26003
lowerneck -1.89686 9.41617 1.31664
upperneck 6.36291 12.3658 2.59886
head 2.23519 6.24957 0.903048
rclavicle -1.10475e-013 -2.38542e-015
rhumerus -52.8488 53.2378 -111.294
rradius 113.335
rwrist -80.1626
rhand 11.6148 -29.0035
rfingers 7.12502
rthumb 36.6563 -55.156
lclavicle -1.10475e-013 -2.38542e-015
lhumerus 2.27522 11.6405 83.725
lradius 90.5397
lwrist -28.8854
lhand -36.7224 52.782
lfingers 7.12502
lthumb -9.8068 -277.466
rfemur -20.4397 -30.1129 11.5404
rtibia 71.4319
rfoot -28.4072 -19.5456
rtoes -21.5938
lfemur -60.7102 41.8175 -6.86607
ltibia 76.5032
lfoot -7.68357 7.58684
ltoes -2.68312
1824
root -4.27453 14.1586 -41.2676 17.8668 -55.1262 -19.6421
lowerback 15.2859 5.82074 2.32668
upperback -3.27982 8.49728 2.01193
thorax -12.1655 3.91143 -1.24695
lowerneck -1.87103 9.42574 1.33286
upperneck 6.34703 12.3785 2.60042
head 2.22619 6.2561 0.899188
rclavicle -5.9039e-014 -2.3059e-014
rhumerus -52.8658 53.2108 -111.326
rradius 113.382
rwrist -80.1437
rhand 11.676 -28.9493
rfingers 7.12502
rthumb 36.7142 -55.0871
lclavicle -5.9039e-014 -2.3059e-014
lhumerus 2.24835 11.8094 83.6604
lradius 90.5894
lwrist -29.0378
lhand -36.7538 52.797
lfingers 7.12502
lthumb -9.83711 -277.453
rfemur -20.5631 -30.2008 11.5585
rtibia 71.5763
rfoot -28.5543 -19.4307
rtoes -21.5456
lfemur -60.656 41.9138 -6.80768
ltibia 76.3941
lfoot -7.61216 7.47848
ltoes -2.69745
1825
root -4.27939 14.1552 -41.294 17.8393 -55.219 -19.5968
lowerback 15.245 5.83269 2.30508
upperback -3.27283 8.50699 2.01142
thorax -12.1363 3.91891 -1.23324
lowerneck -1.84708 9.43152 1.34761
upperneck 6.33319 12.3854 2.61307
head 2.21741 6.26005 0.89895
rclavicle -3.16565e-014 -3.18055e-015
rhumerus -52.8811 53.1902 -111.355
rradius 113.417
rwrist -80.1482
rhand 11.7606 -28.9305
rfingers 7.12502
rthumb 36.7943 -55.0479
lclavicle -3.16565e-014 -3.18055e-015
lhumerus 2.23018 11.9644 83.6023
lradius 90.6252
lwrist -29.123
lhand -36.7756 52.8276
lfingers 7.12502
lthumb -9.8581 -277.423
rfemur -20.6915 -30.2959 11.5809
rtibia 71.7289
rfoot -28.7018 -19.3167
rtoes -21.5157
lfemur -60.6148 42.0204 -6.75229
ltibia 76.2919
lfoot -7.54773 7.34709
ltoes -2.72802
